<?xml version="1.0" encoding="UTF-8"?> <svg xmlns="http://www.w3.org/2000/svg" width="142" height="132" viewBox="0 0 142 132" fill="none"> <path d="M129.313 54.0851C126.193 24.4364 101.114 1.33084 70.6392 1.33084C45.9498 1.33084 24.8024 16.4959 16.0038 38.0193L14.9829 37.8745C23.8728 15.8627 45.4422 0.330841 70.6392 0.330841C101.717 0.330841 127.276 23.9583 130.333 54.2298L129.313 54.0851Z" fill="#26262B"></path> <path d="M132.438 67.2419L132.351 68.4319C133.887 68.4898 135.136 67.1608 135.28 65.1974C135.423 63.2537 134.404 61.6436 132.699 61.5184C131.33 61.4179 130.444 62.3498 129.872 63.903L129.423 65.1262C129.047 66.1754 128.6 67.0997 127.589 67.0254C126.478 66.9439 125.823 65.819 125.926 64.4109C126.015 63.201 126.629 62.1694 127.787 62.1547L127.88 60.8854C126.205 60.882 124.976 62.1477 124.816 64.3293C124.644 66.6696 125.835 68.0931 127.481 68.2139C129.385 68.3537 130.133 66.5941 130.488 65.5633L130.841 64.5524C131.095 63.8133 131.58 62.6326 132.671 62.7127C133.643 62.7841 134.291 63.729 134.192 65.0776C134.102 66.3072 133.448 67.1964 132.438 67.2419Z" fill="#26262B"></path> <path d="M129.498 78.7669C131.617 78.876 133.199 77.5313 133.666 75.5371C134.261 73.0009 132.738 70.7029 129.601 69.9671C126.465 69.2312 124.078 70.6118 123.483 73.148C123.015 75.1422 123.834 77.0501 125.78 77.8948L126.062 76.6945C124.755 76.0816 124.297 74.728 124.606 73.4115C125.028 71.6109 126.754 70.5246 129.329 71.1287C131.904 71.7328 132.966 73.4732 132.544 75.2737C132.235 76.5902 131.222 77.5986 129.779 77.5666L129.498 78.7669Z" fill="#26262B"></path> <path d="M122.304 78.0238L121.837 79.1647L125.517 80.6729L124.672 82.7338C124.639 82.8166 124.606 82.8948 124.579 82.9749L120.08 83.4521L119.537 84.777L124.302 84.242C124.219 85.6104 124.969 86.5732 126.22 87.086C127.885 87.7685 129.516 87.2763 130.421 85.0682L131.726 81.8848L122.304 78.0238ZM126.547 81.0951L130.246 82.6109L129.424 84.6166C128.798 86.1439 127.812 86.4273 126.68 85.9636C125.548 85.4998 125.1 84.6282 125.718 83.1193L126.547 81.0951Z" fill="#26262B"></path> <path d="M118.962 95.489C121.699 97.1883 124.402 96.6428 125.776 94.4296C127.15 92.2164 126.441 89.5519 123.704 87.8526C120.967 86.1532 118.264 86.6987 116.89 88.9119C115.515 91.1251 116.225 93.7896 118.962 95.489ZM119.592 94.4753C117.345 93.0801 116.894 91.0915 117.869 89.5203C118.845 87.9491 120.827 87.4711 123.074 88.8663C125.321 90.2614 125.772 92.25 124.796 93.8212C123.821 95.3924 121.839 95.8704 119.592 94.4753Z" fill="#26262B"></path> <path d="M113.561 94.0307L109.644 98.5302L110.469 99.2484L113.577 95.6788L120.431 101.646L121.241 100.716L113.561 94.0307Z" fill="#26262B"></path> <path d="M108.702 99.4268L104.231 103.377L104.955 104.197L108.502 101.063L114.52 107.874L115.444 107.057L108.702 99.4268Z" fill="#26262B"></path> <path d="M97.5231 107.753C94.8123 109.261 94.221 111.798 95.7682 114.578C97.3056 117.341 99.7631 118.158 102.352 116.718L105.22 115.122L100.269 106.225L97.5231 107.753ZM99.7231 107.78L103.61 114.766L101.89 115.723C99.8047 116.884 98.0098 116.153 96.8108 113.998C95.6021 111.826 95.9175 109.898 98.1244 108.67L99.7231 107.78Z" fill="#26262B"></path> <path d="M85.8376 118.144C86.8896 121.189 89.3311 122.471 91.7934 121.62C94.2557 120.769 95.3855 118.254 94.3334 115.209C93.2814 112.164 90.8399 110.882 88.3776 111.733C85.9153 112.584 84.7855 115.099 85.8376 118.144ZM86.9653 117.754C86.1016 115.255 87.0062 113.427 88.7542 112.823C90.5023 112.219 92.342 113.099 93.2057 115.598C94.0694 118.098 93.1648 119.926 91.4168 120.53C89.6687 121.134 87.829 120.254 86.9653 117.754Z" fill="#26262B"></path> <path d="M81.0958 113.958L79.8327 114.114L78.6006 122.443L78.5217 122.453L75.2936 114.677L74.0305 114.833L72.52 125.28L73.7633 125.126L74.8549 116.635L74.9536 116.623L78.1248 124.586L79.5063 124.414L80.6374 115.918L80.7361 115.906L83.8678 123.874L85.1111 123.72L81.0958 113.958Z" fill="#26262B"></path> <path d="M60.9646 124.411L62.1729 124.519L62.8829 116.536L62.9819 116.545L67.8183 125.021L69.0068 125.126L69.9087 114.985L68.6806 114.875L67.9724 122.838L67.8734 122.829L63.0551 114.375L61.8666 114.269L60.9646 124.411Z" fill="#26262B"></path> <path d="M54.005 121.829L50.9672 120.818L53.8377 112.195L52.6679 111.806L49.7974 120.428L46.7596 119.417L46.4141 120.455L53.6596 122.867L54.005 121.829Z" fill="#26262B"></path> <path d="M38.7267 110.864C37.2125 113.707 37.936 116.368 40.2354 117.592C42.5348 118.817 45.1464 117.932 46.6606 115.088C48.1748 112.245 47.4513 109.584 45.1519 108.36C42.8525 107.135 40.2409 108.02 38.7267 110.864ZM39.7799 111.424C41.023 109.09 42.9774 108.508 44.6098 109.378C46.2422 110.247 46.8506 112.193 45.6074 114.528C44.3643 116.862 42.4099 117.444 40.7775 116.574C39.1451 115.705 38.5367 113.759 39.7799 111.424Z" fill="#26262B"></path> <path d="M34.6634 101.274C32.3535 99.2031 29.7629 99.4712 27.6389 101.84C25.5282 104.195 25.5569 106.784 27.7631 108.762L30.2063 110.953L37.0029 103.371L34.6634 101.274ZM35.3548 103.363L30.0183 109.315L28.5524 108.001C26.7756 106.408 26.8813 104.473 28.5273 102.637C30.1867 100.786 32.1121 100.456 33.9925 102.141L35.3548 103.363Z" fill="#26262B"></path> <path d="M21.791 102.734L22.6074 103.658L30.2378 96.9161L29.4215 95.9921L21.791 102.734Z" fill="#26262B"></path> <path d="M18.4931 94.2121L17.8054 93.237C16.5815 94.1672 16.4597 95.987 17.5944 97.5958C18.7177 99.1884 20.5265 99.7864 21.9241 98.8007C23.0454 98.0098 23.1386 96.7273 22.5955 95.1636L22.1659 93.9335C21.7907 92.884 21.5493 91.8862 22.3781 91.3017C23.2882 90.6598 24.5084 91.1133 25.3222 92.2671C26.0214 93.2584 26.2015 94.4454 25.3163 95.1914L26.0498 96.2315C27.3461 95.1712 27.493 93.4128 26.2322 91.6252C24.8797 89.7076 23.0555 89.3638 21.7067 90.3151C20.1466 91.4155 20.6858 93.2496 21.0658 94.2714L21.4343 95.2769C21.7073 96.0091 22.0815 97.2296 21.1877 97.86C20.3914 98.4216 19.2905 98.103 18.5111 96.9979C17.8005 95.9904 17.7412 94.8884 18.4931 94.2121Z" fill="#26262B"></path> <path d="M13.4353 83.3906C11.727 84.6493 11.3556 86.692 12.2575 88.531C13.4047 90.87 16.0399 91.6817 18.9323 90.2631C21.8248 88.8445 22.7962 86.2639 21.649 83.9249C20.7471 82.0859 18.9045 81.1291 16.8634 81.7093L17.4063 82.8163C18.8054 82.4624 20.018 83.2187 20.6135 84.4328C21.4278 86.0933 20.7816 88.0272 18.4069 89.1919C16.0323 90.3565 14.1075 89.6836 13.2931 88.0231C12.6976 86.809 12.8419 85.3872 13.9783 84.4976L13.4353 83.3906Z" fill="#26262B"></path> <path d="M12.1621 72.6551C9.06582 73.5448 7.65714 75.9152 8.37657 78.419C9.096 80.9228 11.5481 82.1839 14.6444 81.2942C17.7408 80.4045 19.1494 78.0341 18.43 75.5303C17.7106 73.0265 15.2584 71.7654 12.1621 72.6551ZM12.4916 73.8019C15.0337 73.0715 16.8107 74.0713 17.3215 75.8488C17.8322 77.6263 16.857 79.417 14.3149 80.1474C11.7729 80.8778 9.99587 79.878 9.48512 78.1005C8.97438 76.323 9.94961 74.5323 12.4916 73.8019Z" fill="#26262B"></path> <path d="M6.65803 70.4526L6.79234 71.7383L16.5306 66.9619L16.3983 65.6961L5.88316 63.0356L6.01747 64.3212L14.8562 66.437L14.8686 66.5557L6.65803 70.4526Z" fill="#26262B"></path> <path d="M16.0431 60.6066L16.3792 54.3912L15.287 54.3322L15.0175 59.3164L11.5623 59.1295L11.8104 54.5425L10.7182 54.4834L10.4702 59.0705L7.03487 58.8847L7.30009 53.9799L6.20794 53.9209L5.87615 60.0568L16.0431 60.6066Z" fill="#26262B"></path> <path d="M16.5995 52.4719L16.849 51.2645L12.954 50.4597L13.4047 48.2785C13.4228 48.1909 13.4399 48.1081 13.4521 48.0243L17.7866 46.7268L18.0763 45.3246L13.4916 46.7278C13.3208 45.3675 12.4065 44.5592 11.0822 44.2856C9.31972 43.9215 7.80735 44.7055 7.32448 47.0425L6.62834 50.4117L16.5995 52.4719ZM11.8634 50.2344L7.94895 49.4256L8.38755 47.3028C8.72154 45.6864 9.63904 45.2261 10.8368 45.4736C12.0345 45.7211 12.636 46.4952 12.3061 48.0921L11.8634 50.2344Z" fill="#26262B"></path> </svg> 